<svg id="svg" version="1.1" xmlns="http://www.w3.org/2000/svg" xmlns:xlink="http://www.w3.org/1999/xlink" width="400" height="400" viewBox="0, 0, 400,400"><g id="svgg"><path id="path0" d="M139.905 55.300 L 139.774 110.600 138.695 114.000 C 137.922 116.438,137.614 118.263,137.608 120.450 C 137.594 125.569,137.567 125.621,133.864 127.630 L 130.600 129.400 80.200 129.600 L 29.800 129.800 29.699 183.243 L 29.597 236.686 27.799 239.424 C 26.809 240.930,26.000 242.383,26.000 242.653 C 26.000 242.922,25.772 243.381,25.493 243.671 C 23.565 245.681,23.600 244.511,23.604 307.035 C 23.609 370.665,23.505 367.750,25.873 370.414 C 28.595 373.477,23.564 373.241,83.511 373.114 L 137.000 373.000 139.479 371.855 C 140.842 371.225,142.265 370.370,142.641 369.955 C 143.209 369.327,143.900 369.200,146.734 369.200 C 150.345 369.200,153.882 367.599,156.200 364.916 L 157.000 363.990 207.200 363.895 L 257.400 363.800 257.501 306.975 L 257.603 250.149 262.381 247.875 C 265.009 246.624,267.348 245.600,267.579 245.600 C 267.811 245.600,268.000 245.439,268.000 245.243 C 268.000 244.298,272.936 244.187,323.071 244.000 L 376.742 243.800 377.871 242.962 C 378.492 242.501,379.575 241.018,380.279 239.668 L 381.558 237.212 381.564 118.606 L 381.570 0.000 380.385 0.000 L 379.200 0.000 379.200 53.633 C 379.200 101.042,379.123 107.947,378.534 113.133 C 377.947 118.311,377.924 120.293,378.341 130.000 C 378.640 136.986,378.810 158.481,378.806 188.906 L 378.800 236.811 377.920 238.153 C 376.436 240.418,375.698 240.446,318.129 240.382 L 267.000 240.326 261.937 241.374 L 256.873 242.423 204.337 242.240 C 141.599 242.021,142.694 242.070,141.449 239.446 C 140.477 237.398,140.463 130.908,141.434 127.800 C 142.712 123.708,142.921 114.682,143.069 57.100 L 143.216 0.000 141.626 -0.000 L 140.037 -0.000 139.905 55.300 M138.864 245.767 C 139.379 246.408,140.019 247.308,140.286 247.767 C 141.076 249.122,141.011 363.054,140.219 364.642 C 138.971 367.143,137.119 368.415,133.547 369.223 C 130.361 369.943,127.794 369.980,80.200 369.985 L 30.200 369.990 29.266 368.549 C 27.093 365.195,27.200 368.404,27.200 306.688 L 27.200 249.477 28.622 246.934 L 30.044 244.391 83.986 244.496 L 137.928 244.600 138.864 245.767 " stroke="none" fill="#90dbf3" fill-rule="evenodd"></path><path id="path1" d="M263.121 53.700 C 263.078 83.235,263.033 109.245,263.021 111.500 C 263.009 113.755,263.141 115.600,263.314 115.600 C 263.487 115.600,263.442 115.948,263.214 116.374 C 262.986 116.799,262.834 118.644,262.876 120.474 L 262.951 123.800 263.200 120.200 L 263.449 116.600 263.524 120.473 C 263.595 124.108,263.655 124.363,264.500 124.627 C 264.995 124.781,265.498 125.060,265.619 125.246 C 266.008 125.848,377.278 125.719,377.660 125.116 C 377.840 124.832,377.994 122.980,378.002 121.000 C 378.010 119.020,378.277 115.240,378.596 112.600 C 379.074 108.636,379.177 98.414,379.188 53.900 L 379.200 0.000 321.200 0.000 L 263.200 0.000 263.121 53.700 M28.622 246.934 L 27.200 249.477 27.200 306.688 C 27.200 368.404,27.093 365.195,29.266 368.549 L 30.200 369.990 80.200 369.985 C 127.794 369.980,130.361 369.943,133.547 369.223 C 137.119 368.415,138.971 367.143,140.219 364.642 C 141.011 363.054,141.076 249.122,140.286 247.767 C 140.019 247.308,139.379 246.408,138.864 245.767 L 137.928 244.600 83.986 244.496 L 30.044 244.391 28.622 246.934 " stroke="none" fill="#1e8ce2" fill-rule="evenodd"></path><path id="path2" d="M143.069 57.100 C 142.921 114.682,142.712 123.708,141.434 127.800 C 140.463 130.908,140.477 237.398,141.449 239.446 C 142.694 242.070,141.599 242.021,204.337 242.240 L 256.873 242.423 261.937 241.374 L 267.000 240.326 318.129 240.382 C 375.888 240.446,376.431 240.425,377.948 238.111 L 378.855 236.727 378.664 182.263 C 378.486 131.394,378.350 123.986,377.618 125.172 C 377.276 125.724,265.976 125.799,265.619 125.246 C 265.498 125.060,264.995 124.781,264.500 124.627 C 263.655 124.363,263.595 124.108,263.524 120.473 L 263.449 116.600 263.200 120.200 L 262.951 123.800 262.876 120.474 C 262.834 118.644,262.986 116.799,263.214 116.374 C 263.442 115.948,263.487 115.600,263.314 115.600 C 263.141 115.600,263.054 89.590,263.120 57.800 L 263.240 0.000 203.228 0.000 L 143.216 0.000 143.069 57.100 " stroke="none" fill="#09b4e4" fill-rule="evenodd"></path><path id="path3" d="M0.000 200.000 L 0.000 400.000 200.000 400.000 L 400.000 400.000 400.000 200.000 L 400.000 0.000 391.600 0.000 L 383.200 0.000 383.200 55.200 L 383.200 110.400 386.800 110.400 C 389.733 110.400,390.400 110.511,390.400 111.000 C 390.400 111.489,389.733 111.600,386.800 111.600 L 383.200 111.600 383.194 174.700 C 383.187 242.205,383.223 240.950,381.242 243.629 C 380.779 244.255,380.400 244.940,380.400 245.151 C 380.400 245.362,379.725 245.954,378.900 246.467 L 377.400 247.400 323.600 247.600 L 269.800 247.800 267.904 248.914 L 266.008 250.029 265.904 307.229 C 265.830 348.158,265.675 364.510,265.362 364.715 C 265.120 364.872,264.809 365.450,264.670 366.000 C 264.128 368.138,262.794 369.647,260.489 370.727 L 258.200 371.800 206.800 372.009 C 159.723 372.200,155.215 372.276,153.200 372.904 C 151.833 373.331,149.672 373.592,147.494 373.595 C 143.988 373.600,139.274 374.559,138.715 375.381 C 138.300 375.990,28.479 375.967,28.086 375.358 C 27.928 375.115,27.080 374.688,26.200 374.411 C 24.570 373.896,22.286 372.044,21.498 370.600 C 20.069 367.980,20.028 366.246,20.014 307.143 C 19.999 243.563,19.926 245.612,22.420 239.050 C 23.179 237.055,23.200 235.558,23.200 183.508 C 23.200 126.302,23.154 127.713,25.057 126.156 C 25.356 125.912,25.600 125.535,25.600 125.318 C 25.600 125.101,25.960 124.598,26.400 124.200 C 27.078 123.586,27.200 122.968,27.200 120.132 L 27.200 116.787 28.600 116.119 C 29.370 115.752,30.000 115.305,30.000 115.126 C 30.000 114.947,52.635 114.798,80.300 114.795 L 130.600 114.791 133.800 112.858 L 137.000 110.925 137.260 108.763 C 137.404 107.573,137.539 82.615,137.560 53.300 L 137.600 0.000 68.800 0.000 L 0.000 0.000 0.000 200.000 " stroke="none" fill="#f9fbfc" fill-rule="evenodd"></path><path id="path4" d="M137.560 53.300 C 137.539 82.615,137.404 107.573,137.260 108.763 L 137.000 110.925 133.800 112.858 L 130.600 114.791 80.300 114.795 C 52.635 114.798,30.000 114.947,30.000 115.126 C 30.000 115.305,29.370 115.752,28.600 116.119 L 27.200 116.787 27.200 120.132 C 27.200 122.968,27.078 123.586,26.400 124.200 C 25.960 124.598,25.600 125.101,25.600 125.318 C 25.600 125.535,25.356 125.912,25.057 126.156 C 23.154 127.713,23.200 126.302,23.200 183.508 C 23.200 235.558,23.179 237.055,22.420 239.050 C 19.926 245.612,19.999 243.563,20.014 307.143 C 20.028 366.246,20.069 367.980,21.498 370.600 C 22.286 372.044,24.570 373.896,26.200 374.411 C 27.080 374.688,27.928 375.115,28.086 375.358 C 28.479 375.967,138.300 375.990,138.715 375.381 C 139.274 374.559,143.988 373.600,147.494 373.595 C 149.672 373.592,151.833 373.331,153.200 372.904 C 155.215 372.276,159.723 372.200,206.800 372.009 L 258.200 371.800 260.489 370.727 C 262.794 369.647,264.128 368.138,264.670 366.000 C 264.809 365.450,265.120 364.872,265.362 364.715 C 265.675 364.510,265.830 348.158,265.904 307.229 L 266.008 250.029 267.904 248.914 L 269.800 247.800 323.600 247.600 L 377.400 247.400 378.900 246.467 C 379.725 245.954,380.400 245.362,380.400 245.151 C 380.400 244.940,380.779 244.255,381.242 243.629 C 383.223 240.950,383.187 242.205,383.194 174.700 L 383.200 111.600 386.800 111.600 C 389.733 111.600,390.400 111.489,390.400 111.000 C 390.400 110.511,389.733 110.400,386.800 110.400 L 383.200 110.400 383.200 55.200 C 383.200 0.267,383.196 0.000,382.400 0.000 C 381.505 0.000,381.345 34.384,381.583 176.000 L 381.686 237.000 380.343 239.562 C 379.604 240.971,378.492 242.501,377.871 242.962 L 376.742 243.800 323.071 244.000 C 272.936 244.187,268.000 244.298,268.000 245.243 C 268.000 245.439,267.811 245.600,267.579 245.600 C 267.348 245.600,265.009 246.624,262.381 247.875 L 257.603 250.149 257.501 306.975 L 257.400 363.800 207.200 363.895 L 157.000 363.990 156.200 364.916 C 153.882 367.599,150.345 369.200,146.734 369.200 C 143.900 369.200,143.209 369.327,142.641 369.955 C 142.265 370.370,140.842 371.225,139.479 371.855 L 137.000 373.000 83.511 373.114 C 23.564 373.241,28.595 373.477,25.873 370.414 C 23.505 367.750,23.609 370.665,23.604 307.035 C 23.600 244.511,23.565 245.681,25.493 243.671 C 25.772 243.381,26.000 242.922,26.000 242.653 C 26.000 242.383,26.809 240.930,27.799 239.424 L 29.597 236.686 29.699 183.243 L 29.800 129.800 80.200 129.600 L 130.600 129.400 133.864 127.630 C 137.567 125.621,137.594 125.569,137.608 120.450 C 137.614 118.263,137.922 116.438,138.695 114.000 L 139.774 110.600 139.905 55.300 L 140.037 -0.000 138.818 -0.000 L 137.600 0.000 137.560 53.300 " stroke="none" fill="#ace4f4" fill-rule="evenodd"></path></g></svg>